{"title":"Whitechapel S04E01 HDTV XVID Snake","uid":8881789,"size":380087940,"categoryP":"video","categoryS":"tv_shows","magnet":"?xt=urn:btih:94a358faa1f8abeeebdbf744ede45c3fe01a13a5&amp;dn=Whitechapel+S04E01+HDTV+XVID+Snake&amp;tr=udp%3A%2F%2Ftracker.openbittorrent.com%3A80&amp;tr=udp%3A%2F%2Fopen.demonii.com%3A1337&amp;tr=udp%3A%2F%2Ftracker.coppersurfer.tk%3A6969&amp;tr=udp%3A%2F%2Fexodus.desync.com%3A6969","seeders":1,"leechers":1,"uploader":"TeX","files":2,"time":1378343430,"description":"Source : Whitechapel S04E01 720p HDTV x264-TLA\nGeneral \nFormat : AVI \nFormat/Info : Audio Video Interleave \nFile size : 362 MiB \nDuration : 44mn 52s \nOverall bit rate mode : Variable \nOverall bit rate : 1 129 Kbps \n\nVideo \nID : 0 \nFormat : MPEG-4 Visual \nFormat profile : Advanced Simple@L5 \nFormat settings, BVOP : 1 \nFormat settings, QPel : No \nFormat settings, GMC : No warppoints \nFormat settings, Matrix : Default (H.263) \nMuxing mode : Packed bitstream \nCodec ID : XVID \nCodec ID/Hint : XviD \nDuration : 44mn 52s \nBit rate : 1 002 Kbps \nWidth : 720 pixels \nHeight : 400 pixels \nDisplay aspect ratio : 16:9 \nFrame rate : 25.000 fps \nColor space : YUV \nChroma subsampling : 4:2:0 \nBit depth : 8 bits \nScan type : Progressive \nCompression mode : Lossy \nBits/(Pixel*Frame) : 0.139 \nStream size : 321 MiB (89%) \nWriting library : XviD 1.2.1 (UTC 2008-12-04) \n\nAudio \nID : 1 \nFormat : MPEG Audio \nFormat version : Version 1 \nFormat profile : Layer 3 \nMode : Joint stereo \nCodec ID : 55 \nCodec ID/Hint : MP3 \nDuration : 44mn 52s \nBit rate mode : Variable \nBit rate : 115 Kbps \nNominal bit rate : 128 Kbps \nChannel(s) : 2 channels \nSampling rate : 48.0 KHz \nCompression mode : Lossy \nStream size : 36.9 MiB (10%) \nAlignment : Aligned on interleaves \nInterleave, duration : 24 ms (0.60 video frame) \nInterleave, preload duration : 240 ms \nWriting library : LAME3.99r \nEncoding settings : -m j -V 4 -q 2 -lowpass 17 --abr 128 \n","torrent":{"xt":"urn:btih:94a358faa1f8abeeebdbf744ede45c3fe01a13a5","amp;dn":"Whitechapel+S04E01+HDTV+XVID+Snake","amp;tr":["udp%3A%2F%2Ftracker.openbittorrent.com%3A80","udp%3A%2F%2Fopen.demonii.com%3A1337","udp%3A%2F%2Ftracker.coppersurfer.tk%3A6969","udp%3A%2F%2Fexodus.desync.com%3A6969"],"infoHash":"94a358faa1f8abeeebdbf744ede45c3fe01a13a5","infoHashBuffer":{"type":"Buffer","data":[148,163,88,250,161,248,171,238,235,219,247,68,237,228,92,63,224,26,19,165]},"announce":[],"urlList":[]}}